# Blender v2.79 (sub 0) OBJ File: ''
# www.blender.org
mtllib Tree.mtl
o Cylinder002
v 0.353028 -0.000000 0.153740
v 0.080925 0.000000 -0.220771
v -0.262880 1.550364 -0.220770
v -0.025924 1.416612 0.153740
v -0.359346 0.000000 -0.077717
v -0.646291 1.766778 -0.077717
v -0.359346 -0.000000 0.385203
v -0.646291 1.766778 0.385204
v 0.080925 -0.000000 0.528256
v -0.262880 1.550364 0.528257
v 0.118763 4.356686 0.153747
v -0.013615 4.259843 0.139834
v -0.227818 4.103157 0.145150
v -0.227818 4.103157 0.162337
v -0.013615 4.259843 0.167653
v 0.130908 2.360546 0.003688
v 0.225850 2.226795 0.153740
v -0.022710 2.576955 0.061004
v -0.022710 2.576955 0.246482
v 0.130908 2.360546 0.303798
v 0.585986 3.016175 0.003688
v 0.744197 3.059439 0.153746
v 0.329995 2.946168 0.061004
v 0.329995 2.946168 0.246482
v 0.585986 3.016175 0.303798
v 0.392840 3.704192 -0.029332
v 0.525225 3.801035 0.153740
v 0.178637 3.547506 0.040597
v 0.178637 3.547506 0.266890
v 0.392840 3.704192 0.336819
vt 0.500000 1.000000
vt 0.024500 0.654500
vt 0.024500 0.654500
vt 0.500000 1.000000
vt 0.206100 0.095500
vt 0.206100 0.095500
vt 0.793900 0.095500
vt 0.793900 0.095500
vt 0.975500 0.654500
vt 0.975500 0.654500
vt 0.024500 0.654500
vt 0.500000 1.000000
vt 0.206100 0.095500
vt 0.793900 0.095500
vt 0.975500 0.654500
vt 0.024500 0.654500
vt 0.500000 1.000000
vt 0.206100 0.095500
vt 0.793900 0.095500
vt 0.975500 0.654500
vt 0.750000 0.000000
vt 0.950000 0.000000
vt 0.950000 1.000000
vt 0.750000 1.000000
vt 1.150000 0.000000
vt 1.150000 1.000000
vt 0.150000 0.000000
vt 0.350000 0.000000
vt 0.350000 1.000000
vt 0.150000 1.000000
vt 0.550000 0.000000
vt 0.550000 1.000000
vt 0.975500 0.654500
vt 0.793900 0.095500
vt 0.206100 0.095500
vt 0.024500 0.654500
vt 0.500000 1.000000
vt 0.024500 0.654500
vt 0.500000 1.000000
vt 0.206100 0.095500
vt 0.793900 0.095500
vt 0.975500 0.654500
vn 0.7684 -0.2230 -0.5999
vn -0.1214 0.2890 -0.9496
vn -0.7925 0.6099 0.0000
vn -0.1214 0.2890 0.9496
vn 0.7684 -0.2230 0.5999
vn 0.6311 -0.4128 -0.6568
vn -0.2104 0.1658 -0.9635
vn -0.7231 0.6908 0.0000
vn -0.2104 0.1658 0.9635
vn 0.6311 -0.4128 0.6568
vn 0.7004 0.1860 -0.6891
vn -0.2157 -0.0979 -0.9715
vn -0.9698 -0.2441 0.0000
vn -0.2157 -0.0979 0.9715
vn 0.7003 0.1860 0.6891
vn 0.9704 0.2413 0.0095
vn 0.3723 0.0913 -0.9236
vn 0.0389 0.0219 -0.9990
vn 0.9704 0.2408 0.0177
vn -0.7798 -0.1266 -0.6131
vn -0.8990 -0.1536 -0.4102
vn -0.7824 -0.1372 0.6075
vn -0.9011 -0.1464 0.4081
vn 0.3861 0.1064 0.9163
vn 0.0625 0.0305 0.9976
vn -0.0000 -1.0000 -0.0000
vn 0.3514 0.3868 -0.8526
vn -0.2252 0.0746 -0.9715
vn -0.8071 -0.5904 0.0000
vn -0.2252 0.0746 0.9715
vn 0.3514 0.3868 0.8526
vn -0.5904 0.8071 0.0000
usemtl wire_224086086
s off
f 4/1/1 3/2/1 16/3/1 17/4/1
f 3/2/2 6/5/2 18/6/2 16/3/2
f 6/5/3 8/7/3 19/8/3 18/6/3
f 8/7/4 10/9/4 20/10/4 19/8/4
f 10/9/5 4/1/5 17/4/5 20/10/5
f 17/4/6 16/3/6 21/11/6 22/12/6
f 16/3/7 18/6/7 23/13/7 21/11/7
f 18/6/8 19/8/8 24/14/8 23/13/8
f 19/8/9 20/10/9 25/15/9 24/14/9
f 20/10/10 17/4/10 22/12/10 25/15/10
f 22/12/11 21/11/11 26/16/11 27/17/11
f 21/11/12 23/13/12 28/18/12 26/16/12
f 23/13/13 24/14/13 29/19/13 28/18/13
f 24/14/14 25/15/14 30/20/14 29/19/14
f 25/15/15 22/12/15 27/17/15 30/20/15
s 1
f 1/21/16 2/22/17 3/23/18 4/24/19
f 2/22/17 5/25/20 6/26/21 3/23/18
f 5/27/20 7/28/22 8/29/23 6/30/21
f 7/28/22 9/31/24 10/32/25 8/29/23
f 9/31/24 1/21/16 4/24/19 10/32/25
f 9/33/26 7/34/26 5/35/26 2/36/26 1/37/26
usemtl Material__49
s off
f 27/17/27 26/16/27 12/38/27 11/39/27
f 26/16/28 28/18/28 13/40/28 12/38/28
f 28/18/29 29/19/29 14/41/29 13/40/29
f 29/19/30 30/20/30 15/42/30 14/41/30
f 30/20/31 27/17/31 11/39/31 15/42/31
s 1
f 11/39/32 12/38/32 13/40/32 14/41/32 15/42/32
o Hedra001
v -0.477174 7.374787 1.039472
v 0.433977 6.917863 1.408442
v 0.935350 6.821689 0.836156
v 0.797339 6.925761 -0.047369
v 0.218650 6.979590 -0.150409
v -0.634431 7.329325 0.364147
v 1.388714 6.486693 -0.706042
v 1.334885 5.926491 -1.105426
v 0.895810 5.809526 -1.280587
v 0.335615 6.388215 -0.967421
v 0.651977 4.956451 -1.568116
v -0.023342 5.113703 -1.722499
v -0.663035 6.024854 -1.481613
v -0.547904 6.526226 -1.108007
v -1.653531 5.931383 -0.988795
v -2.017076 6.154474 -0.390846
v -1.724924 7.001419 -0.177670
v -1.210921 7.175469 -0.358203
v -1.586920 6.941448 0.705856
v -0.995594 7.313650 1.200642
v -1.821196 5.828275 1.038725
v -1.577880 5.802849 1.533475
v -0.995248 6.557860 1.924177
v -0.543020 7.019384 1.880409
v -1.105882 5.776311 2.229336
v -0.430563 5.590274 2.383719
v 0.563597 6.014543 2.125202
v 0.340506 6.612527 2.020996
v 1.410543 5.842401 1.416844
v 1.584593 6.387815 0.723529
v 1.738442 6.242859 -0.233850
v 1.783911 5.567534 -0.144814
v 1.326981 4.927841 -0.604558
v 1.230812 5.042972 -1.019506
v 1.350572 4.958875 1.502757
v 1.722768 4.828969 0.825014
v -1.321452 5.128295 1.816294
v -0.671546 4.497114 1.520747
v 0.211973 4.090258 1.894874
v 0.237393 4.584978 2.204116
v 0.966985 3.512074 1.175805
v 1.428502 3.833272 0.887542
v 1.021646 3.937345 0.004017
v 0.423667 3.573800 -0.383046
v 0.251519 3.865952 -1.093542
v 0.796938 4.379955 -1.201673
v 0.185430 3.422953 0.349930
v -0.000601 3.377484 -0.325396
v -1.637845 4.919329 1.678302
v -1.683022 4.269424 1.380051
v -1.093761 3.953032 0.506750
v -0.462587 3.907861 0.647853
v -1.500618 4.013002 -0.376770
v -1.005904 3.769680 -0.910993
v -0.632001 4.003963 -1.467676
v -0.761913 4.595283 -1.589495
v -2.078809 4.595629 -0.049520
v -1.757604 5.047856 -0.843962
v -2.213392 5.160319 0.745856
v -2.167924 4.484994 1.002430
vt 0.000000 -0.085400
vt 0.180900 -0.197200
vt 0.319100 -0.111800
vt 0.319100 0.111800
vt 0.180900 0.197200
vt 0.000000 0.085400
vt 0.111800 0.378100
vt 0.177100 0.174100
vt 0.319100 0.111800
vt 0.430900 0.180900
vt 0.397300 0.365700
vt 0.206000 0.487000
vt 0.180900 0.197200
vt -0.000000 0.085400
vt -0.000000 -0.085400
vt 0.180900 -0.197200
vt 0.319100 -0.111800
vt 0.319100 0.111800
vt 0.430900 0.180900
vt 0.319100 0.111800
vt 0.180900 0.197200
vt 0.111800 0.378100
vt 0.197200 0.430900
vt 0.378100 0.319100
vt -0.319100 0.111800
vt -0.319100 -0.111800
vt -0.180900 -0.197200
vt -0.180900 0.197200
vt -0.111800 0.378100
vt -0.194100 0.172100
vt -0.319100 0.111800
vt -0.430900 0.180900
vt -0.453600 0.254700
vt -0.258300 0.372000
vt 0.180900 -0.197200
vt 0.000000 -0.085400
vt 0.000000 0.085400
vt 0.180900 0.197200
vt 0.319100 0.111800
vt 0.319100 -0.111800
vt -0.430900 0.180900
vt -0.319100 0.111800
vt -0.180900 0.197200
vt -0.111800 0.378100
vt -0.197200 0.430900
vt -0.378100 0.319100
vt 0.180900 0.197200
vt -0.000000 0.085400
vt -0.000000 -0.085400
vt 0.180900 -0.197200
vt 0.319100 -0.111800
vt -0.319100 -0.111800
vt -0.180900 -0.197200
vt -0.180900 -0.197200
vt -0.319100 -0.111800
vt -0.319100 0.111800
vt -0.180900 0.197200
vt 0.111800 -0.378100
vt 0.217900 -0.157600
vt 0.319100 -0.111800
vt 0.430900 -0.180900
vt 0.341100 -0.306700
vt 0.124200 -0.448600
vt 0.111800 -0.378100
vt 0.197200 -0.430900
vt 0.378100 -0.319100
vt 0.430900 -0.180900
vt 0.319100 0.111800
vt 0.180900 -0.197200
vt 0.000000 -0.085400
vt 0.000000 0.085400
vt 0.180900 0.197200
vt -0.197200 -0.430900
vt -0.305200 -0.342300
vt -0.430900 -0.180900
vt -0.319100 -0.111800
vt -0.189100 -0.183500
vt -0.124900 -0.369500
vt -0.319100 0.111800
vt -0.180900 0.197200
vt -0.180900 -0.197200
vt -0.319100 0.111800
vt -0.319100 -0.111800
vt -0.180900 -0.197200
vt -0.180900 0.197200
vt 0.378100 -0.319100
vt 0.279500 -0.356600
vt 0.208900 -0.310700
vt 0.180900 -0.197200
vt 0.319100 -0.111800
vt 0.424900 -0.213000
vt -0.319100 -0.111800
vt -0.180900 0.197200
vt 0.000000 0.085400
vt 0.000000 -0.085400
vt -0.180900 -0.197200
vt 0.111800 0.378100
vt -0.111800 0.378100
vt -0.111800 -0.378100
vt 0.111800 -0.378100
vt -0.111800 0.378100
vt 0.111800 0.378100
vt -0.111800 -0.378100
vt -0.111800 -0.378100
vt -0.111800 0.378100
vt 0.111800 0.378100
vt -0.111800 -0.378100
vt 0.111800 -0.378100
vt -0.111800 -0.378100
vt 0.111800 -0.378100
vt 0.111800 -0.378100
vt -0.111800 -0.378100
vt 0.111800 0.378100
vt -0.111800 0.378100
vn 0.3139 0.9492 -0.0204
vn 0.1225 0.7408 -0.6604
vn 0.2003 0.4396 -0.8756
vn -0.4552 0.5219 -0.7214
vn -0.3300 0.9440 -0.0028
vn -0.7507 0.4201 0.5099
vn -0.0359 0.3147 0.9485
vn 0.6340 0.5615 0.5318
vn 0.8945 -0.0702 -0.4416
vn 0.9644 0.0781 0.2527
vn -0.3885 -0.4956 0.7768
vn 0.6301 -0.3308 0.7026
vn 0.7323 -0.5777 -0.3606
vn 0.4421 -0.8746 -0.1992
vn -0.0063 -0.7476 0.6642
vn -0.3705 -0.9112 0.1800
vn 0.1918 -0.3801 -0.9049
vn -0.7110 -0.3794 -0.5920
vn -0.8163 0.0976 0.5693
vn -0.9574 -0.0302 -0.2870
vn 0.1938 0.8514 -0.4873
vn 0.2309 0.8787 0.4179
vn 0.5762 0.8172 -0.0137
vn 0.4853 -0.0290 0.8739
vn 0.8659 -0.3894 -0.3140
vn -0.4175 -0.8255 0.3797
vn 0.0558 -0.8785 -0.4745
vn -0.5225 -0.8523 0.0224
vn -0.4501 0.0486 -0.8917
vn -0.9278 0.3189 0.1937
vn -0.7618 0.1525 0.6297
vn 0.6215 -0.1014 -0.7768
usemtl wire_154185229
s off
f 31/43/33 32/44/33 33/45/33 34/46/33 35/47/33 36/48/33
f 34/49/34 37/50/34 38/51/34 39/52/34 40/53/34 35/54/34
f 39/55/35 41/56/35 42/57/35 43/58/35 44/59/35 40/60/35
f 43/61/36 45/62/36 46/63/36 47/64/36 48/65/36 44/66/36
f 47/67/37 49/68/37 50/69/37 31/43/37 36/48/37 48/70/37
f 49/71/38 51/72/38 52/73/38 53/74/38 54/75/38 50/76/38
f 53/77/39 55/78/39 56/79/39 57/80/39 58/81/39 54/82/39
f 57/83/40 59/84/40 60/85/40 33/86/40 32/87/40 58/88/40
f 37/89/41 61/90/41 62/91/41 63/92/41 64/93/41 38/51/41
f 61/90/42 60/85/42 59/84/42 65/94/42 66/95/42 62/91/42
f 55/78/43 67/96/43 68/97/43 69/98/43 70/99/43 56/79/43
f 69/100/44 71/101/44 72/102/44 66/103/44 65/104/44 70/105/44
f 63/92/45 73/106/45 74/107/45 75/108/45 76/109/45 64/93/45
f 73/110/46 72/102/46 71/111/46 77/112/46 78/113/46 74/114/46
f 67/115/47 79/116/47 80/117/47 81/118/47 82/119/47 68/120/47
f 81/118/48 83/121/48 84/122/48 78/113/48 77/112/48 82/123/48
f 75/124/49 85/125/49 86/126/49 42/57/49 41/56/49 76/127/49
f 85/128/50 84/129/50 83/130/50 87/131/50 88/132/50 86/133/50
f 79/134/51 52/73/51 51/135/51 89/136/51 90/137/51 80/138/51
f 89/136/52 46/63/52 45/62/52 88/132/52 87/131/52 90/137/52
f 35/47/53 40/139/53 44/140/53 48/70/53 36/48/53
f 50/69/54 54/141/54 58/142/54 32/44/54 31/43/54
f 33/86/55 60/85/55 61/90/55 37/89/55 34/49/55
f 57/80/56 56/79/56 70/99/56 65/143/56 59/144/56
f 66/95/57 72/145/57 73/106/57 63/92/57 62/91/57
f 69/100/58 68/146/58 82/123/58 77/112/58 71/111/58
f 78/113/59 84/122/59 85/147/59 75/148/59 74/114/59
f 81/149/60 80/138/60 90/137/60 87/131/60 83/150/60
f 88/151/61 45/152/61 43/58/61 42/57/61 86/126/61
f 89/136/62 51/135/62 49/71/62 47/64/62 46/63/62
f 52/153/63 79/154/63 67/96/63 55/78/63 53/77/63
f 39/55/64 38/155/64 64/156/64 76/127/64 41/56/64
